# xmcd
#
# Track frame offsets: 
#        150
#        11097
#        27190
#        45522
#        59374
#        81637
#        94739
#        109633
#        129500
#        136455
#        157482
#
# Disc length: 2471 seconds
#
# Revision: 0
# Processed by: cddbd v1.5.2PL0 Copyright (c) Steve Scherf et al.
# Submitted via: ExactAudioCopyFreeDBPlugin 1.0
#
DISCID=9609a50b
DTITLE=Leningrad Cowboyws - Buena Vodka Social Club
DYEAR=2011
DGENRE=Alt. Rock
TTITLE0=Machine Gun Blues
TTITLE1=All We Need Is Love
TTITLE2=Drill A hole
TTITLE3=Gimme Your Sushi
TTITLE4=RockNRoll Show
TTITLE5=I Kill The Dog
TTITLE6=Gasolina
TTITLE7=Buena Vodka Social Club
TTITLE8=Frijoles Y Lager
TTITLE9=Wash Your Ass
TTITLE10=Mule
EXTD=
EXTT0=
EXTT1=
EXTT2=
EXTT3=
EXTT4=
EXTT5=
EXTT6=
EXTT7=
EXTT8=
EXTT9=
EXTT10=
PLAYORDER=
